[h264 @ 0x561092ed2080] Reinit context to 848x480, pix_fmt: yuv420p
Input #0, mov,mp4,m4a,3gp,3g2,mj2, from '/var/www/html/project/media/video/original/WhatsApp_Video_2023-08-21_at_21.28.34.mp4':
  Metadata:
    major_brand     : mp42
    minor_version   : 0
    compatible_brands: mp42isom
  Duration: 00:01:05.22, start: 0.000000, bitrate: 1585 kb/s
    Stream #0:0(und): Video: h264 (Baseline), 1 reference frame (avc1 / 0x31637661), yuv420p(tv, bt709, left), 848x480, 1527 kb/s, 50 fps, 50 tbr, 600 tbn, 1200 tbc (default)
    Stream #0:1(und): Audio: aac (LC) (mp4a / 0x6134706D), 44100 Hz, stereo, fltp, 56 kb/s (default)
Input #1, png_pipe, from '/var/www/html/project/static/images/templates/logo.png':
  Duration: N/A, bitrate: N/A
    Stream #1:0: Video: png, 1 reference frame, rgba(pc), 1920x1080 [SAR 2835:2835 DAR 16:9], 25 tbr, 25 tbn, 25 tbc
[h264 @ 0x561092f20dc0] Reinit context to 1280x720, pix_fmt: yuv420p
Input #2, mov,mp4,m4a,3gp,3g2,mj2, from '/var/www/html/project/static/images/templates/Codino.mp4':
  Metadata:
    major_brand     : mp42
    minor_version   : 1
    compatible_brands: isommp41mp42
    creation_time   : 2021-07-11T07:02:58.000000Z
  Duration: 00:00:02.00, start: 0.000000, bitrate: 1007 kb/s
    Stream #2:0(ita): Audio: aac (LC) (mp4a / 0x6134706D), 44100 Hz, stereo, fltp, 102 kb/s (default)
    Metadata:
      creation_time   : 2021-07-11T07:02:58.000000Z
      handler_name    : Core Media Audio
    Stream #2:1(und): Video: h264 (High), 1 reference frame (avc1 / 0x31637661), yuv420p(tv, bt709, progressive, left), 1280x720 [SAR 1:1 DAR 16:9], 813 kb/s, 25 fps, 25 tbr, 25k tbn, 50k tbc (default)
    Metadata:
      creation_time   : 2021-07-11T07:02:58.000000Z
      handler_name    : Core Media Video
[Parsed_scale_0 @ 0x56109304fac0] w:1280 h:720 flags:'bilinear' interl:0
[Parsed_scale_2 @ 0x561093055c80] w:1280 h:720 flags:'bilinear' interl:0
[Parsed_scale_4 @ 0x561092f2da40] w:1280 h:720 flags:'bilinear' interl:0
Stream mapping:
  Stream #0:0 (h264) -> scale
  Stream #0:1 (aac) -> concat:in0:a0
  Stream #1:0 (png) -> scale
  Stream #2:0 (aac) -> concat:in1:a0
  Stream #2:1 (h264) -> scale
  concat:out:v0 -> Stream #0:0 (libx264)
  concat:out:a0 -> Stream #0:1 (aac)
Press [q] to stop, [?] for help
[h264 @ 0x561093008ac0] Reinit context to 848x480, pix_fmt: yuv420p
[h264 @ 0x561093398dc0] Reinit context to 1280x720, pix_fmt: yuv420p
[Parsed_scale_0 @ 0x561093eb64c0] w:1280 h:720 flags:'bilinear' interl:0
[Parsed_scale_2 @ 0x561093ebed40] w:1280 h:720 flags:'bilinear' interl:0
[Parsed_scale_4 @ 0x561093ebfd80] w:1280 h:720 flags:'bilinear' interl:0
[graph 0 input from stream 0:0 @ 0x561093ec44c0] w:848 h:480 pixfmt:yuv420p tb:1/600 fr:50/1 sar:0/1 sws_param:flags=2
[graph 0 input from stream 1:0 @ 0x561093ec5540] w:1920 h:1080 pixfmt:rgba tb:1/25 fr:25/1 sar:2835/2835 sws_param:flags=2
[graph 0 input from stream 2:1 @ 0x561093ec65c0] w:1280 h:720 pixfmt:yuv420p tb:1/25000 fr:25/1 sar:1/1 sws_param:flags=2
[graph_0_in_0_1 @ 0x561093ec7580] tb:1/44100 samplefmt:fltp samplerate:44100 chlayout:0x3
[graph_0_in_2_0 @ 0x561093ec86c0] tb:1/44100 samplefmt:fltp samplerate:44100 chlayout:0x3
[Parsed_scale_0 @ 0x561093eb64c0] w:848 h:480 fmt:yuv420p sar:0/1 -> w:1280 h:720 fmt:yuv420p sar:0/1 flags:0x2
[Parsed_setsar_1 @ 0x561093eb6d40] w:1280 h:720 sar:0/1 dar:16/9 -> sar:1/1 dar:16/9
[Parsed_scale_2 @ 0x561093ebed40] w:1920 h:1080 fmt:rgba sar:2835/2835 -> w:1280 h:720 fmt:yuva420p sar:1/1 flags:0x2
[Parsed_setsar_3 @ 0x561093ebf240] w:1280 h:720 sar:1/1 dar:16/9 -> sar:1/1 dar:16/9
[Parsed_overlay_6 @ 0x561093ec1400] main w:1280 h:720 fmt:yuv420p overlay w:1280 h:720 fmt:yuva420p
[Parsed_overlay_6 @ 0x561093ec1400] [framesync @ 0x561093ec1528] Selected 1/600 time base
[Parsed_overlay_6 @ 0x561093ec1400] [framesync @ 0x561093ec1528] Sync level 2
[Parsed_scale_4 @ 0x561093ebfd80] w:1280 h:720 fmt:yuv420p sar:1/1 -> w:1280 h:720 fmt:yuv420p sar:1/1 flags:0x2
[Parsed_setsar_5 @ 0x561093ec0840] w:1280 h:720 sar:1/1 dar:16/9 -> sar:1/1 dar:16/9
[libx264 @ 0x5610930598c0] using SAR=1/1
[libx264 @ 0x5610930598c0] using cpu capabilities: MMX2 SSE2Fast SSSE3 SSE4.2 AVX FMA3 BMI2 AVX2
[libx264 @ 0x5610930598c0] profile High, level 3.2
[libx264 @ 0x5610930598c0] 264 - core 155 r2917 0a84d98 - H.264/MPEG-4 AVC codec - Copyleft 2003-2018 - http://www.videolan.org/x264.html - options: cabac=1 ref=1 deblock=1:0:0 analyse=0x3:0x113 me=hex subme=2 psy=1 psy_rd=1.00:0.00 mixed_ref=0 me_range=16 chroma_me=1 trellis=0 8x8dct=1 cqm=0 deadzone=21,11 fast_pskip=1 chroma_qp_offset=0 threads=22 lookahead_threads=5 sliced_threads=0 nr=0 decimate=1 interlaced=0 bluray_compat=0 constrained_intra=0 bframes=3 b_pyramid=2 b_adapt=1 b_bias=0 direct=1 weightb=1 open_gop=0 weightp=1 keyint=250 keyint_min=25 scenecut=40 intra_refresh=0 rc_lookahead=10 rc=crf mbtree=1 crf=18.0 qcomp=0.60 qpmin=0 qpmax=69 qpstep=4 ip_ratio=1.40 aq=1:1.00
Output #0, mp4, to '/var/www/html/project/media/video/watermarks/WhatsApp_Video_2023-08-21_at_21.28.34.mp4':
  Metadata:
    major_brand     : mp42
    minor_version   : 0
    compatible_brands: mp42isom
    encoder         : Lavf58.29.100
    Stream #0:0: Video: h264 (libx264), 1 reference frame (avc1 / 0x31637661), yuv420p(progressive), 1280x720 [SAR 1:1 DAR 16:9], q=-1--1, 50 fps, 12800 tbn, 50 tbc (default)
    Metadata:
      encoder         : Lavc58.54.100 libx264
    Side data:
      cpb: bitrate max/min/avg: 0/0/0 buffer size: 0 vbv_delay: -1
    Stream #0:1: Audio: aac (LC) (mp4a / 0x6134706D), 44100 Hz, stereo, fltp, delay 1024, 128 kb/s (default)
    Metadata:
      encoder         : Lavc58.54.100 aac
[Parsed_overlay_6 @ 0x561093ec1400] [framesync @ 0x561093ec1528] Sync level 0
[Parsed_concat_7 @ 0x561093ec2540] EOF on in0:v0, 1 streams left in segment.
[Parsed_concat_7 @ 0x561093ec2540] EOF on in0:a0, 0 streams left in segment.
[Parsed_concat_7 @ 0x561093ec2540] Segment finished at pts=65224853
[Parsed_concat_7 @ 0x561093ec2540] EOF on in1:a0, 1 streams left in segment.
[Parsed_concat_7 @ 0x561093ec2540] EOF on in1:v0, 0 streams left in segment.
[Parsed_concat_7 @ 0x561093ec2540] Segment finished at pts=67243538
No more output streams to write to, finishing.
frame= 3307 fps=110 q=-1.0 Lsize=   31216kB time=00:01:07.24 bitrate=3802.9kbits/s speed=2.24x    
[AVIOContext @ 0x561092ed0440] Statistics: 0 seeks, 60 writeouts
video:30085kB audio:1048kB subtitle:0kB other streams:0kB global headers:0kB muxing overhead: 0.270207%
Input file #0 (/var/www/html/project/media/video/original/WhatsApp_Video_2023-08-21_at_21.28.34.mp4):
  Input stream #0:0 (video): 3257 packets read (12436960 bytes); 3257 frames decoded; 
  Input stream #0:1 (audio): 2809 packets read (460776 bytes); 2809 frames decoded (2876416 samples); 
  Total: 6066 packets (12897736 bytes) demuxed
Input file #1 (/var/www/html/project/static/images/templates/logo.png):
  Input stream #1:0 (video): 1 packets read (111578 bytes); 1 frames decoded; 
  Total: 1 packets (111578 bytes) demuxed
Input file #2 (/var/www/html/project/static/images/templates/Codino.mp4):
  Input stream #2:0 (audio): 89 packets read (26579 bytes); 87 frames decoded (89024 samples); 
  Input stream #2:1 (video): 50 packets read (203365 bytes); 50 frames decoded; 
  Total: 139 packets (229944 bytes) demuxed
Output file #0 (/var/www/html/project/media/video/watermarks/WhatsApp_Video_2023-08-21_at_21.28.34.mp4):
  Output stream #0:0 (video): 3307 frames encoded; 3307 packets muxed (30806603 bytes); 
  Output stream #0:1 (audio): 2896 frames encoded (2965440 samples); 2897 packets muxed (1072718 bytes); 
  Total: 6204 packets (31879321 bytes) muxed
[AVIOContext @ 0x561092f28040] Statistics: 2 seeks, 125 writeouts
[libx264 @ 0x5610930598c0] frame I:20    Avg QP:16.22  size: 68897
[libx264 @ 0x5610930598c0] frame P:904   Avg QP:20.04  size: 21987
[libx264 @ 0x5610930598c0] frame B:2383  Avg QP:23.19  size:  4008
[libx264 @ 0x5610930598c0] consecutive B-frames:  3.3%  1.5%  1.5% 93.7%
[libx264 @ 0x5610930598c0] mb I  I16..4: 19.6% 28.3% 52.2%
[libx264 @ 0x5610930598c0] mb P  I16..4:  8.5% 11.9%  1.9%  P16..4: 31.8% 18.1% 10.2%  0.0%  0.0%    skip:17.6%
[libx264 @ 0x5610930598c0] mb B  I16..4:  1.1%  0.6%  0.0%  B16..8: 18.7%  6.4%  0.6%  direct: 7.8%  skip:65.0%  L0:37.1% L1:46.8% BI:16.1%
[libx264 @ 0x5610930598c0] 8x8 transform intra:48.6% inter:31.0%
[libx264 @ 0x5610930598c0] coded y,uvDC,uvAC intra: 41.6% 44.5% 15.5% inter: 9.8% 12.3% 0.5%
[libx264 @ 0x5610930598c0] i16 v,h,dc,p: 46% 36% 12%  6%
[libx264 @ 0x5610930598c0] i8 v,h,dc,ddl,ddr,vr,hd,vl,hu: 23% 39% 19%  3%  3%  3%  4%  3%  4%
[libx264 @ 0x5610930598c0] i4 v,h,dc,ddl,ddr,vr,hd,vl,hu: 24% 29% 12%  4%  6%  5%  7%  4%  6%
[libx264 @ 0x5610930598c0] i8c dc,h,v,p: 50% 26% 19%  5%
[libx264 @ 0x5610930598c0] Weighted P-Frames: Y:5.4% UV:0.2%
[libx264 @ 0x5610930598c0] kb/s:3666.28
[aac @ 0x561093071640] Qavg: 963.083
[AVIOContext @ 0x561092ed93c0] Statistics: 12929709 bytes read, 0 seeks
[AVIOContext @ 0x561093076a00] Statistics: 111578 bytes read, 0 seeks
[AVIOContext @ 0x561093078040] Statistics: 1530915 bytes read, 42 seeks
